<?xml version="1.0" standalone="no"?>
<!DOCTYPE svg PUBLIC "-//W3C//DTD SVG 20010904//EN" "http://www.w3.org/TR/2001/REC-SVG-20010904/DTD/svg10.dtd">
<svg xmlns="http://www.w3.org/2000/svg" version="1.0" width="2048.000000pt" height="2048.000000pt" viewBox="0 0 2048.000000 2048.000000" preserveAspectRatio="xMidYMid meet">
<metadata>
Created by potrace 1.16, written by Peter Selinger 2001-2019
<meta name="Producer" content="Online-Convert"/></metadata>
<g transform="translate(0.000000,2048.000000) scale(0.100000,-0.100000)" fill="#000000" stroke="none">
<path d="M9645 12920 c-320 -29 -629 -101 -910 -212 -132 -52 -418 -199 -479 -246 -43 -33 -53 -48 -86 -133 -42 -111 -62 -140 -111 -168 -19 -11 -149 -47 -289 -81 -282 -67 -306 -78 -344 -159 -20 -43 -21 -61 -21 -326 0 -270 1 -281 22 -322 24 -45 56 -74 100 -91 15 -6 123 -34 239 -62 117 -28 220 -57 230 -64 16 -12 23 -5 77 83 225 366 613 706 955 837 l72 28 49 103 c66 137 138 240 241 343 82 82 223 186 319 235 76 38 218 84 309 100 108 19 305 19 413 0 482 -84 883 -478 983 -967 9 -42 16 -93 16 -113 l0 -36 28 20 c218 165 439 309 590 385 28 14 52 28 52 30 0 4 -156 127 -234 185 -445 328 -964 536 -1527 611 -176 24 -534 34 -694 20z"/>
<path d="M12955 12149 c-424 -80 -912 -314 -1368 -656 -339 -256 -795 -709 -1022 -1015 -28 -38 -55 -68 -61 -68 -6 0 -20 -10 -31 -22 -16 -18 -20 -39 -21 -101 -2 -92 -41 -283 -72 -355 -35 -82 -106 -131 -190 -132 -21 0 -32 -14 -72 -89 l-47 -90 20 -41 c33 -68 45 -141 30 -189 -22 -77 -150 -206 -308 -314 -70 -47 -69 -43 -21 -145 44 -93 79 -113 221 -124 62 -5 204 -8 317 -6 188 3 209 5 250 25 71 36 85 66 150 327 33 130 68 255 78 279 26 58 77 99 163 132 41 16 125 50 188 77 94 41 124 50 172 49 68 0 94 -12 319 -146 244 -145 268 -154 342 -135 36 10 73 42 241 209 109 108 210 215 224 239 18 30 25 56 25 92 -1 47 -9 64 -116 235 -148 236 -186 310 -186 364 0 61 143 413 188 463 41 46 77 58 361 122 112 25 218 53 237 62 38 18 68 61 82 119 12 48 26 855 15 854 -4 -1 -53 -9 -108 -20z"/>
<path d="M9475 10774 c-75 -8 -210 -25 -243 -31 l-34 -6 40 -41 c65 -67 86 -118 86 -211 1 -64 -4 -89 -22 -127 -37 -75 -94 -132 -163 -163 -56 -25 -70 -27 -149 -23 -71 3 -94 9 -132 31 -63 36 -123 108 -145 170 -24 71 -22 178 5 239 l20 46 -66 -23 c-37 -12 -104 -37 -149 -54 l-83 -32 0 -83 c0 -90 18 -174 54 -251 57 -120 194 -241 326 -286 90 -31 241 -37 330 -14 222 57 394 245 430 470 12 75 29 107 66 123 81 38 174 -29 174 -125 0 -90 -85 -294 -168 -403 -314 -414 -924 -427 -1263 -26 -99 117 -158 251 -180 411 l-12 83 -91 -55 c-79 -48 -263 -162 -275 -170 -2 -2 3 -11 12 -21 14 -16 67 -175 67 -202 0 -5 -43 -62 -95 -127 -55 -68 -95 -127 -95 -140 0 -26 96 -171 177 -268 39 -47 67 -71 84 -73 13 -2 78 18 142 43 99 38 122 43 140 34 40 -22 177 -141 177 -154 0 -7 -16 -84 -36 -172 -19 -87 -36 -175 -37 -197 -3 -80 61 -105 416 -166 210 -36 269 -38 314 -10 56 33 63 55 87 259 13 105 25 193 27 196 9 9 199 85 213 85 7 0 57 -29 111 -65 53 -36 108 -68 122 -71 18 -5 38 3 79 31 61 42 229 198 244 226 14 25 -17 104 -79 204 l-49 80 23 40 c13 22 41 71 62 110 l38 69 100 2 c139 3 149 9 174 88 45 146 66 349 41 396 -6 12 -49 31 -122 54 -62 20 -119 40 -127 45 -13 9 -61 176 -61 216 0 19 -7 23 -42 29 -53 8 -408 16 -463 10z"/>
<path d="M6323 7400 c-157 -33 -242 -144 -231 -301 10 -138 70 -193 262 -240 68 -17 138 -39 155 -50 82 -50 58 -171 -39 -200 -65 -20 -187 -7 -259 26 l-64 29 -29 -34 c-17 -19 -37 -46 -46 -59 -16 -23 -15 -25 18 -53 97 -80 313 -107 461 -56 123 41 197 154 187 282 -6 73 -34 131 -83 174 -45 40 -75 52 -203 86 -159 41 -182 57 -182 134 0 46 26 84 70 102 44 18 164 8 225 -19 l50 -22 28 33 c16 18 35 45 43 60 14 27 13 28 -31 54 -25 14 -66 32 -91 40 -60 18 -188 25 -241 14z"/>
<path d="M7103 7400 c-59 -12 -112 -42 -154 -87 -84 -87 -103 -175 -97 -431 4 -155 8 -185 28 -236 64 -165 243 -244 426 -188 90 27 143 73 185 157 27 56 33 81 42 192 15 183 -1 344 -43 430 -36 72 -92 125 -159 148 -56 20 -171 27 -228 15z m167 -168 c21 -10 45 -34 60 -62 24 -44 25 -50 25 -245 0 -195 -1 -201 -25 -244 -34 -59 -79 -83 -148 -78 -60 4 -97 27 -127 78 -18 31 -20 52 -20 251 0 204 1 218 21 245 52 70 139 93 214 55z"/>
<path d="M7860 7391 c-73 -24 -128 -69 -163 -136 -32 -61 -30 -175 4 -240 37 -72 84 -101 222 -135 65 -16 126 -34 137 -40 11 -6 26 -8 33 -4 6 4 9 3 4 -1 -4 -5 3 -19 15 -32 32 -34 37 -126 8 -171 -54 -87 -230 -96 -362 -18 -25 14 -47 26 -51 26 -3 0 -19 -19 -36 -41 -37 -51 -32 -65 36 -101 103 -56 273 -75 381 -43 143 43 218 182 183 340 -24 106 -85 149 -275 194 -47 11 -99 27 -115 35 -16 9 -32 12 -36 8 -3 -4 -5 -2 -4 3 2 6 -5 23 -15 38 -26 39 -25 110 1 145 37 49 77 65 169 66 45 1 81 -1 79 -3 -2 -2 19 -16 48 -30 l52 -28 37 40 c32 33 36 41 25 58 -7 11 -18 17 -25 14 -7 -3 -11 -1 -8 4 3 5 -18 19 -47 32 -42 19 -73 23 -162 26 -60 1 -121 -1 -135 -6z"/>
<path d="M9691 7389 c-103 -20 -189 -102 -222 -211 -19 -62 -21 -89 -17 -290 3 -221 3 -224 31 -280 34 -69 92 -121 161 -145 70 -24 186 -23 254 2 56 20 122 69 122 89 0 7 -15 27 -34 45 l-33 32 -47 -32 c-39 -28 -57 -34 -115 -37 -54 -3 -76 0 -109 17 -49 25 -87 78 -101 141 -16 71 -14 358 4 416 8 27 11 52 6 57 -11 11 -42 -3 -34 -16 10 -16 12 -57 3 -57 -5 0 -7 -9 -5 -20 2 -13 -2 -20 -11 -20 -8 0 -14 -5 -14 -11 0 -7 -5 -8 -13 -3 -7 5 -3 0 10 -11 13 -12 23 -25 23 -30 0 -6 -5 -3 -10 5 -8 12 -10 11 -10 -6 0 -11 6 -26 13 -33 10 -11 10 -13 0 -7 -10 5 -13 -5 -12 -41 l2 -48 7 40 7 40 2 -52 c1 -43 -2 -51 -14 -47 -11 5 -13 2 -9 -10 3 -8 9 -15 12 -14 20 2 21 -4 6 -27 -9 -14 -20 -23 -24 -20 -5 3 -11 1 -15 -5 -4 -6 -11 -7 -17 -4 -7 5 -9 1 -5 -9 4 -10 2 -17 -4 -17 -6 0 -9 9 -6 20 3 11 2 20 -1 20 -4 0 -7 34 -8 75 0 41 3 75 7 75 3 0 1 21 -4 47 -9 35 -8 48 1 51 7 2 12 10 12 18 0 9 -4 12 -10 9 -5 -3 -10 -1 -10 4 0 6 4 11 9 11 5 0 7 14 4 31 -3 21 -1 29 6 24 10 -5 16 21 12 48 0 4 4 7 9 7 6 0 10 6 10 13 0 8 10 22 22 33 12 10 18 13 14 7 -10 -19 4 -16 28 5 19 17 19 17 3 -8 -22 -31 -22 -44 0 -36 10 4 14 4 10 0 -4 -4 -2 -13 4 -20 8 -10 19 -4 49 26 24 24 52 41 75 46 56 10 138 0 184 -24 49 -26 65 -28 58 -8 -4 9 -1 13 6 10 7 -2 20 9 29 24 17 28 17 30 -5 49 -64 59 -184 84 -296 62z"/>
<path d="M4813 7366 c-23 -20 -28 -32 -28 -70 0 -64 28 -91 96 -91 43 0 54 4 75 28 40 47 32 117 -17 142 -43 23 -93 19 -126 -9z"/>
<path d="M8717 7378 c-9 -7 -87 -150 -173 -317 -124 -241 -156 -313 -156 -343 1 -21 4 -42 7 -48 4 -6 79 -10 194 -10 l189 0 4 -96 c5 -109 9 -116 78 -112 l45 3 3 103 3 102 43 0 c48 0 56 9 56 65 0 33 -1 34 -47 37 l-48 3 -5 115 -5 115 -60 0 -60 0 -3 -117 -3 -118 -118 0 c-65 0 -120 3 -124 6 -3 3 62 139 145 301 142 279 150 297 133 309 -24 17 -76 18 -98 2z"/>
<path d="M11504 7362 c-68 -33 -88 -71 -92 -179 l-4 -93 -39 0 -39 0 0 -45 0 -45 40 0 40 0 0 -269 0 -269 23 -6 c12 -3 39 -3 60 1 l37 6 0 268 0 269 65 0 65 0 0 45 0 45 -64 0 -64 0 -5 33 c-9 49 8 119 33 139 15 12 39 18 71 18 46 0 49 2 57 33 13 45 -3 58 -79 63 -49 4 -74 0 -105 -14z"/>
<path d="M5710 7186 l0 -85 -37 -3 -38 -3 -3 -62 -3 -62 38 -3 38 -3 5 -210 c6 -238 9 -248 84 -285 30 -14 62 -20 112 -20 95 0 106 9 102 85 l-3 60 -45 3 c-24 2 -50 8 -57 14 -10 8 -13 56 -13 184 l0 174 55 0 55 0 0 65 0 65 -55 0 -55 0 0 63 c0 108 1 107 -96 107 l-84 0 0 -84z"/>
<path d="M14380 7180 l0 -90 -46 0 -45 0 3 -42 c3 -43 3 -43 46 -46 l42 -3 0 -212 c0 -188 3 -217 20 -255 30 -67 119 -99 199 -71 25 9 31 17 31 39 0 50 -9 60 -55 60 -69 0 -70 5 -70 234 l0 201 63 3 62 3 0 44 c0 52 -15 60 -85 49 l-45 -6 0 91 0 91 -60 0 -60 0 0 -90z"/>
<path d="M4800 6785 l0 -325 85 0 85 0 0 325 0 325 -85 0 -85 0 0 -325z"/>
<path d="M5216 7096 c-80 -30 -126 -97 -126 -186 0 -59 17 -97 58 -132 37 -31 67 -42 164 -63 107 -22 139 -69 81 -115 -24 -19 -37 -21 -95 -17 -44 3 -78 11 -101 26 -49 30 -61 27 -103 -24 l-37 -46 23 -24 c42 -45 123 -68 235 -69 101 0 158 15 205 56 45 38 64 81 64 147 1 119 -46 166 -200 202 -104 24 -127 38 -122 78 2 20 12 29 44 40 36 13 49 13 100 -1 33 -8 66 -18 75 -22 12 -5 24 6 48 43 18 28 30 55 26 61 -3 6 -25 20 -48 32 -54 28 -229 37 -291 14z"/>
<path d="M10287 7100 c-91 -23 -147 -81 -168 -174 -16 -72 -7 -277 15 -336 33 -89 113 -140 220 -140 82 0 126 17 176 68 56 58 70 100 77 227 9 172 -34 284 -128 333 -52 26 -135 36 -192 22z m131 -113 c13 -6 34 -29 45 -52 19 -35 22 -56 22 -160 0 -98 -4 -127 -19 -158 -21 -43 -60 -67 -108 -67 -50 0 -81 21 -105 70 -20 38 -23 60 -23 159 0 94 4 122 20 156 33 69 95 88 168 52z"/>
<path d="M10950 7094 c-19 -8 -47 -27 -62 -41 -27 -26 -28 -26 -28 -6 0 44 -10 53 -61 53 l-49 0 0 -320 0 -320 60 0 60 0 0 230 c0 260 4 280 67 306 71 30 142 -3 163 -77 6 -19 10 -130 10 -246 l0 -213 60 0 60 0 0 225 c0 262 -8 311 -57 366 -52 58 -147 76 -223 43z"/>
<path d="M12177 7096 c-55 -15 -90 -45 -120 -101 -17 -33 -22 -62 -25 -176 -6 -207 24 -300 112 -340 76 -35 155 -21 218 39 15 14 31 23 34 19 13 -13 -8 -154 -27 -186 -38 -64 -133 -77 -219 -32 -47 24 -62 19 -78 -29 -9 -24 -7 -31 11 -47 51 -45 149 -62 239 -44 60 13 125 50 121 69 -2 7 2 11 9 9 6 -1 23 18 37 43 l26 45 0 365 0 365 -50 0 c-49 0 -50 -1 -53 -32 -2 -18 -6 -33 -9 -33 -3 0 -20 13 -39 29 -31 28 -90 52 -124 50 -8 0 -37 -6 -63 -13z m170 -111 c41 -27 53 -73 53 -200 0 -76 -5 -127 -14 -149 -40 -97 -167 -102 -211 -9 -27 55 -28 262 -2 315 32 64 111 84 174 43z"/>
<path d="M13535 7096 c-16 -8 -43 -28 -60 -46 l-30 -32 -5 39 -5 38 -55 0 -55 0 1 -160 c0 -88 2 -231 2 -317 l2 -158 60 0 60 0 0 224 c0 216 1 224 23 257 31 47 62 61 119 54 47 -6 47 -5 72 38 14 24 26 47 26 50 0 8 -70 27 -100 27 -14 -1 -38 -7 -55 -14z"/>
<path d="M13885 7103 c-36 -8 -79 -26 -108 -46 -27 -18 -27 -19 -10 -49 29 -47 36 -50 84 -28 48 22 134 26 172 9 33 -15 48 -44 54 -105 l6 -54 -94 0 c-149 0 -211 -26 -250 -102 -28 -54 -24 -163 7 -205 31 -43 99 -73 165 -73 69 0 104 12 142 48 23 22 29 24 37 12 5 -8 10 -23 10 -32 0 -15 9 -18 50 -18 l50 0 0 231 c0 257 -7 304 -54 354 -48 51 -170 78 -261 58z m193 -410 c2 -34 -3 -65 -13 -87 -38 -81 -182 -90 -221 -15 -18 35 -18 63 1 98 21 42 76 60 175 57 l55 -1 3 -52z"/>
<path d="M14898 7100 c-61 -11 -108 -40 -141 -87 -41 -61 -49 -107 -45 -254 3 -127 5 -137 33 -189 49 -89 126 -126 242 -117 122 9 191 77 214 211 14 84 6 221 -17 289 -38 111 -152 170 -286 147z m121 -115 c50 -25 66 -75 66 -205 0 -71 -5 -130 -14 -153 -33 -95 -170 -103 -218 -14 -13 23 -18 63 -21 150 -6 178 23 236 121 237 21 0 51 -7 66 -15z"/>
<path d="M15553 7091 c-23 -11 -49 -31 -58 -45 -22 -32 -35 -25 -35 20 l0 34 -55 0 -56 0 3 -317 3 -318 57 -3 57 -3 3 230 c3 229 3 229 28 256 40 43 77 58 124 51 42 -7 42 -6 64 39 12 25 22 47 22 49 0 8 -64 26 -89 26 -14 0 -45 -9 -68 -19z"/>
<path d="M11777 7093 c-4 -3 -7 -147 -7 -320 l0 -313 60 0 60 0 0 314 c0 349 5 326 -69 326 -21 0 -41 -3 -44 -7z"/>
<path d="M12687 7094 c-4 -4 -7 -118 -7 -253 0 -217 3 -251 19 -286 36 -81 99 -112 207 -103 47 4 60 10 92 41 21 21 41 37 44 37 3 0 9 -16 12 -35 7 -34 8 -35 57 -35 l49 0 -2 318 -3 317 -57 3 -58 3 0 -221 c0 -165 -3 -229 -14 -254 -33 -79 -126 -102 -188 -47 l-33 29 -5 244 -5 243 -50 3 c-28 2 -54 0 -58 -4z"/>
</g>
</svg>
